<svg xmlns="http://www.w3.org/2000/svg" xmlns:xlink="http://www.w3.org/1999/xlink" width="500" zoomAndPan="magnify" viewBox="0 0 375 374.999991" height="500" preserveAspectRatio="xMidYMid meet" version="1.0"><defs><clipPath id="566bb2ee8c"><path d="M 37.5 73 L 176 73 L 176 375 L 37.5 375 Z M 37.5 73 " clip-rule="nonzero"/></clipPath><clipPath id="cafd4c6222"><path d="M 118 0 L 348.75 0 L 348.75 375 L 118 375 Z M 118 0 " clip-rule="nonzero"/></clipPath></defs><g clip-path="url(#566bb2ee8c)"><path fill="#ff9500" d="M 175.480469 73.507812 C 98.152344 80.195312 37.5 145.183594 37.5 224.402344 C 37.5 303.621094 98.152344 368.609375 175.480469 375.347656 L 175.480469 349.625 C 148.464844 346.796875 124.027344 335.394531 104.886719 318.195312 L 121.359375 301.636719 C 124.027344 298.960938 124.027344 294.542969 121.359375 291.871094 C 118.691406 289.195312 114.28125 289.195312 111.613281 291.871094 L 95.085938 308.429688 C 76.582031 287.707031 64.808594 260.886719 63.226562 231.34375 L 86.574219 231.34375 C 90.382812 231.34375 93.503906 228.21875 93.503906 224.402344 C 93.503906 220.585938 90.382812 217.511719 86.574219 217.511719 L 63.226562 217.511719 C 64.808594 187.96875 76.582031 161.09375 95.085938 140.425781 L 111.613281 156.984375 C 114.28125 159.660156 118.691406 159.660156 121.359375 156.984375 C 124.027344 154.257812 124.027344 149.894531 121.359375 147.171875 L 104.886719 130.667969 C 124.027344 113.460938 148.472656 102.066406 175.480469 99.238281 Z M 175.480469 73.507812 " fill-opacity="1" fill-rule="evenodd"/></g><g clip-path="url(#cafd4c6222)"><path fill="#005959" d="M 348.789062 29.878906 L 314.453125 29.878906 L 314.453125 64.28125 L 348.789062 64.28125 Z M 188.199219 235.0625 L 118.390625 225.199219 L 188.199219 215.332031 L 188.199219 72.417969 L 221.941406 72.417969 C 227.429688 72.417969 232.679688 73.753906 237.273438 76.136719 L 237.273438 87.933594 L 250.238281 87.933594 C 255.832031 88.128906 272.652344 87.136719 286.15625 106.476562 L 273.242188 106.476562 L 273.242188 147.519531 L 305.199219 147.519531 C 322.125 152.671875 334.488281 168.488281 334.488281 187.171875 C 334.488281 195.355469 332.113281 202.9375 328.054688 209.382812 C 336.167969 218.902344 341.117188 231.292969 341.117188 244.875 C 341.117188 268.367188 326.277344 288.453125 305.449219 296.128906 C 306.488281 299.644531 307.082031 303.417969 307.082031 307.332031 C 307.082031 328.796875 289.714844 346.242188 268.25 346.242188 C 263.796875 346.242188 259.542969 345.445312 255.53125 344.0625 C 254.296875 361.5625 239.652344 375.492188 221.941406 375.492188 L 188.199219 375.492188 Z M 221.941406 72.417969 Z M 300.949219 57.347656 L 279.277344 57.347656 L 279.277344 79.058594 L 300.949219 79.058594 Z M 341.859375 110.390625 L 320.1875 110.390625 L 320.1875 132.101562 L 341.859375 132.101562 Z M 306.984375 -0.160156 L 291.652344 -0.160156 L 291.652344 15.203125 L 306.984375 15.203125 Z M 275.515625 19.667969 L 257.75 19.667969 L 257.75 37.464844 L 275.515625 37.464844 Z M 329.292969 78.953125 L 313.957031 78.953125 L 313.957031 94.320312 L 329.292969 94.320312 Z M 257.363281 62.402344 L 245.6875 62.402344 L 245.6875 74.101562 L 257.363281 74.101562 Z M 308.320312 113.011719 L 279.128906 113.011719 L 279.128906 142.261719 L 308.320312 142.261719 Z M 221.941406 119.902344 L 221.941406 134.078125 L 235.496094 134.078125 L 235.496094 119.902344 Z M 247.960938 165.609375 L 225.695312 165.609375 L 225.695312 187.917969 L 247.960938 187.917969 Z M 291.300781 161.695312 L 269.035156 161.695312 L 269.035156 184.003906 L 291.300781 184.003906 Z M 256.816406 138.894531 L 242.71875 138.894531 L 242.71875 153.070312 L 256.816406 153.070312 Z M 264.386719 95.167969 L 250.238281 95.167969 L 250.238281 109.34375 L 264.386719 109.34375 Z M 264.386719 95.167969 " fill-opacity="1" fill-rule="evenodd"/></g></svg>